<?xml version="1.0" encoding="iso-8859-1"?>
<svg width="100%" height="494.6230010986328"><g transform="translate(0, 127.332)"><g transform="translate(83.3798, 151.142)"><g transform="translate(0,0)  scale(3.44455643621814)"><path d="m 0,0 c 0,0,3.99113,-5.37183,6.59487,-4.58367,3.93462,1.19103,-1.63701,20.06526,-1.63701,20.06526" stroke-width="2" stroke="white" fill="none" stroke-linecap="round" stroke-linejoin="round" transform="translate(0,-15.812463669433598)" style="opacity: 1; stroke-dasharray: 29.2768px, 31.2768px; stroke-dashoffset: 30.2768px;"></path><path d="m 0,0 c 0,0,12.68711,0.80895,17.25893,-2.80633,2.49583,-1.97364,5.12003,-9.10333,1.87087,-9.44798,-8.27215,-0.87746,-6.22118,20.1412,-2.89986,20.76685,2.74452,0.517,4.64963,-2.18546,5.56588,-3.97564" stroke-width="2" stroke="white" fill="none" stroke-linecap="round" stroke-linejoin="round" transform="translate(2.712799999999902,-9.311133669433588)" style="opacity: 1; stroke-dasharray: 60.8352px, 62.8352px; stroke-dashoffset: 61.8352px;"></path></g><g transform="translate(89.37882676229944,0)  scale(3.44455643621814)"><path d="m 0,0 c 2.465,0.66896,9.7292,-4.0435,4.9578,-6.40779,-5.4217,-2.6865,-9.9191,10.86369,-2.3854,10.47696,3.4053,-0.1748,4.7708,-3.36759,4.7708,-3.36759" stroke-width="2" stroke="white" fill="none" stroke-linecap="round" stroke-linejoin="round" transform="translate(0,-4.493593669433594)" style="opacity: 1; stroke-dasharray: 34.5357px, 36.5357px; stroke-dashoffset: 35.5357px;"></path></g><g transform="translate(117.29974182536003,0)  scale(3.44455643621814)"><path d="m 0,0 c 0,0,11.9119,-18.94195,5.5658,-19.08304,-4.8719,-0.10832,-9.4931,20.75883,-2.8998,22.17001,1.8527,0.39653,3.7418,-1.82412,3.7418,-1.82412" stroke-width="2" stroke="white" fill="none" stroke-linecap="round" stroke-linejoin="round" transform="translate(0,-3.6984736694335965)" style="opacity: 1; stroke-dasharray: 51.8247px, 53.8247px; stroke-dashoffset: 52.8247px;"></path></g><g transform="translate(145.8730911659999,0)  scale(3.44455643621814)"><path d="m 0,0 c 0,0,11.9119,-18.94195,5.5658,-19.08304,-4.8719,-0.10832,-9.4931,20.75883,-2.8998,22.17001,1.8527,0.39653,3.7418,-1.82412,3.7418,-1.82412" stroke-width="2" stroke="white" fill="none" stroke-linecap="round" stroke-linejoin="round" transform="translate(0,-3.6984736694335965)" style="opacity: 1; stroke-dasharray: 51.8247px, 53.8247px; stroke-dashoffset: 52.8247px;"></path></g><g transform="translate(189.73163770231542,0)  scale(3.44455643621814)"><path d="m 0,0 c 5.0049,0.45252,4.5634,9.80789,-1.2628,9.96247,-5.4841,0.1455,-5.179,-10.54493,1.2628,-9.96247 z" stroke-width="2" stroke="white" fill="none" stroke-linecap="round" stroke-linejoin="round" transform="translate(0,-10.667523669433592)" style="opacity: 1; stroke-dasharray: 29.4971px, 31.4971px; stroke-dashoffset: 30.4971px;"></path></g><g transform="translate(209.74430253241513,0)  scale(3.44455643621814)"><path d="m 0,0 c 1.677946,-5.44834,5.875964,-14.09066,3.788545,-14.26551,-1.909719,-0.15996,-2.796112,9.62055,-3.788545,14.26551 z" stroke-width="2" stroke="white" fill="none" stroke-linecap="round" stroke-linejoin="round" transform="translate(0,-6.598343669433589)" style="opacity: 1; stroke-dasharray: 30.3776px, 32.3776px; stroke-dashoffset: 31.3776px;"></path><path d="m 0,0 c 1.606102,0.0574,1.291892,2.36027,-0.17339,2.36463,-1.696558,0.005,-1.379038,-2.42011,0.17339,-2.36463 z" stroke-width="2" stroke="white" fill="none" stroke-linecap="round" stroke-linejoin="round" transform="translate(-0.6051999999999964,-3.8841836694335967)" style="opacity: 1; stroke-dasharray: 7.52356px, 9.52356px; stroke-dashoffset: 8.52356px;"></path></g><g transform="translate(226.0850645540594,0)  scale(3.44455643621814)"><path d="M0,0 l12.533575179729056 0" stroke-width="2" stroke="transparent" fill="none" stroke-linecap="round" stroke-linejoin="round" transform="translate(0,0)" style="opacity: 1; stroke-dasharray: 12.5336px, 14.5336px; stroke-dashoffset: 13.5336px;"></path></g><g transform="translate(280.0802267483357,0)  scale(3.44455643621814)"><path d="m 0,0 c 3.7693,-0.16435,7.38481,-0.17491,10.98021,-0.16536" stroke-width="2" stroke="white" fill="none" stroke-linecap="round" stroke-linejoin="round" transform="translate(0,-19.612243669433596)" style="opacity: 1; stroke-dasharray: 10.9825px, 12.9825px; stroke-dashoffset: 11.9825px;"></path><path d="m 0,0 c 3.78134,0.0759,7.56268,0.0233,11.34401,-0.16536" stroke-width="2" stroke="white" fill="none" stroke-linecap="round" stroke-linejoin="round" transform="translate(-3.141930000000002,-0.9260436694335965)" style="opacity: 1; stroke-dasharray: 11.3475px, 13.3475px; stroke-dashoffset: 12.3475px;"></path><path d="m 0,0 c -1.00721,6.32093,-1.95816,12.5856,-2.87734,18.81849" stroke-width="2" stroke="white" fill="none" stroke-linecap="round" stroke-linejoin="round" transform="translate(5.2585900000000265,-19.744533669433594)" style="opacity: 1; stroke-dasharray: 19.0373px, 21.0373px; stroke-dashoffset: 20.0373px;"></path></g><g transform="translate(321.42750591596194,0)  scale(3.44455643621814)"><path d="m 0,0 c 0.874227,-2.48524,2.617772,-7.18154,1.543483,-7.24968,-1.123,-0.0712,-1.042912,4.3654,-1.543483,7.24968 z" stroke-width="2" stroke="white" fill="none" stroke-linecap="round" stroke-linejoin="round" transform="translate(0,-13.824193669433598)" style="opacity: 1; stroke-dasharray: 15.335px, 17.335px; stroke-dashoffset: 16.335px;"></path></g><g transform="translate(334.25299291263747,0)  scale(3.44455643621814)"><path d="m 0,0 c -1.2058,3.63903,-0.8329,7.14944,-0.421,10.66404,0,0,4.0146,-12.33194,6.7352,-10.80436,1.5337,0.86113,-1.2967,11.0151,-0.6075,10.85114,0,0,2.3347,-10.67544,6.7352,-10.43019,2.443,0.13615,-0.3535,10.57051,0.1403,10.57051" stroke-width="2" stroke="white" fill="none" stroke-linecap="round" stroke-linejoin="round" transform="translate(0,-11.088463669433594)" style="opacity: 1; stroke-dasharray: 59.614px, 61.614px; stroke-dashoffset: 60.614px;"></path></g><g transform="translate(380.6081519443444,0)  scale(3.44455643621814)"><path d="M0,0 l12.533575179729056 0" stroke-width="2" stroke="transparent" fill="none" stroke-linecap="round" stroke-linejoin="round" transform="translate(0,0)" style="opacity: 1; stroke-dasharray: 12.5336px, 14.5336px; stroke-dashoffset: 13.5336px;"></path></g><g transform="translate(432.4387898867854,0)  scale(3.44455643621814)"><path d="m 0,0 c 0,0,-2.33343,-3.5611,0.13229,-6.01926,2.19462,-2.18791,7.73907,-0.99219,7.73907,-0.99219,0,0,1.14681,18.743,-5.55626,19.18229,-3.43438,0.22507,-4.82864,-3.83646,-4.82864,-3.83646" stroke-width="2" stroke="white" fill="none" stroke-linecap="round" stroke-linejoin="round" transform="translate(0,-13.030733669433587)" style="opacity: 1; stroke-dasharray: 42.5629px, 44.5629px; stroke-dashoffset: 43.5629px;"></path><path d="m 0,0 c -3.90565,4.1045,-3.51512,11.2428,-14.94896,10.45104,14.44954,-0.49152,8.48073,15.58305,18.05783,5.42396" stroke-width="2" stroke="white" fill="none" stroke-linecap="round" stroke-linejoin="round" transform="translate(19.049999999999955,-20.3729136694336)" style="opacity: 1; stroke-dasharray: 42.8076px, 44.8076px; stroke-dashoffset: 43.8076px;"></path></g><g transform="translate(532.9027689681977,0)  scale(3.44455643621814)"><path d="m 0,0 c -4.646,-1.48274,-10.0236,8.49938,-4.5836,10.33665,3.3686,1.13772,5.7062,-9.96247,5.7062,-9.96247,-0.6831,3.30523,-0.9457,6.61046,-0.6549,9.91569" stroke-width="2" stroke="white" fill="none" stroke-linecap="round" stroke-linejoin="round" transform="translate(0,-10.667523669433592)" style="opacity: 1; stroke-dasharray: 37.6718px, 39.6718px; stroke-dashoffset: 38.6718px;"></path></g><g transform="translate(552.0615772256214,0)  scale(3.44455643621814)"><path d="m 0,0 c 0,0,9.2964,-9.03946,4.116,-10.71083,-4.1144,-1.32745,-6.6072,19.28338,-2.8531,20.39267,2.5655,0.75808,3.208,-0.70923,3.9756,-2.05798" stroke-width="2" stroke="white" fill="none" stroke-linecap="round" stroke-linejoin="round" transform="translate(0,-10.480433669433594)" style="opacity: 1; stroke-dasharray: 41.1014px, 43.1014px; stroke-dashoffset: 42.1014px;"></path><path d="m 0,0 c 2.4774,-0.25283,6.2663,-0.21923,10.477,-0.0935" stroke-width="2" stroke="white" fill="none" stroke-linecap="round" stroke-linejoin="round" transform="translate(-4.303000000000111,-10.293343669433597)" style="opacity: 1; stroke-dasharray: 10.4836px, 12.4836px; stroke-dashoffset: 11.4836px;"></path></g><g transform="translate(597.4647679721495,0)  scale(3.44455643621814)"><path d="m 0,0 c -4.646,-1.48274,-10.0236,8.49938,-4.5836,10.33665,3.3686,1.13772,5.7062,-9.96247,5.7062,-9.96247,-0.6831,3.30523,-0.9457,6.61046,-0.6549,9.91569" stroke-width="2" stroke="white" fill="none" stroke-linecap="round" stroke-linejoin="round" transform="translate(0,-10.667523669433592)" style="opacity: 1; stroke-dasharray: 37.6718px, 39.6718px; stroke-dashoffset: 38.6718px;"></path></g><g transform="translate(604.9794620819241,0)  scale(3.44455643621814)"><path d="m 0,0 c -0.6404,3.64447,-1.1518,7.28452,-0.7951,10.80436,0,0,3.0898,-11.27648,7.0626,-10.19632,1.8219,0.49536,-1.4947,4.20307,0.1871,4.91107,0.7215,0.30373,1.4967,-1.44994,1.4967,-1.44994" stroke-width="2" stroke="white" fill="none" stroke-linecap="round" stroke-linejoin="round" transform="translate(0,-11.415873669433594)" style="opacity: 1; stroke-dasharray: 31.8887px, 33.8887px; stroke-dashoffset: 32.8887px;"></path></g><g transform="translate(634.6587901095538,0)  scale(3.44455643621814)"><path d="m 0,0 c 2.8064,0.0237,5.6127,0.39668,8.419,-0.14032,-4.7221,2.95533,-6.8168,5.29745,-9.0739,9.77538,3.3561,0.12128,6.6836,0.15679,9.9158,-0.0935" stroke-width="2" stroke="white" fill="none" stroke-linecap="round" stroke-linejoin="round" transform="translate(0,-10.246573669433587)" style="opacity: 1; stroke-dasharray: 31.9109px, 33.9109px; stroke-dashoffset: 32.9109px;"></path></g><g transform="translate(676.6845834603266,0)  scale(3.44455643621814)"><path d="m 0,0 c 0,0,-3.9597,9.93233,-0.5145,10.43019,3.8762,0.56014,6.4546,-10.33665,6.4546,-10.33665,-0.7681,4.42179,-2.9159,22.19284,-6.3611,21.93615,-5.9761,-0.44524,0.051,-10.3518,4.3031,-9.68184" stroke-width="2" stroke="white" fill="none" stroke-linecap="round" stroke-linejoin="round" transform="translate(0,-11.3691036694336)" style="opacity: 1; stroke-dasharray: 62.4832px, 64.4832px; stroke-dashoffset: 63.4832px;"></path></g><g transform="translate(701.1244678773488,0)  scale(3.44455643621814)"><path d="m 0,0 c -0.7275,3.66382,-1.11,7.32764,-0.8419,10.99146,0,0,3.1281,-11.01538,6.5013,-10.52374,2.0763,0.30261,-0.4186,10.73879,0.1872,10.57051" stroke-width="2" stroke="white" fill="none" stroke-linecap="round" stroke-linejoin="round" transform="translate(0,-11.462653669433593)" style="opacity: 1; stroke-dasharray: 34.9957px, 36.9957px; stroke-dashoffset: 35.9957px;"></path></g><g transform="translate(748.4068987702148,0)  scale(3.44455643621814)"><path d="m 0,0 c -4.646,-1.48274,-10.0236,8.49938,-4.5836,10.33665,3.3686,1.13772,5.7062,-9.96247,5.7062,-9.96247,-0.6831,3.30523,-0.9457,6.61046,-0.6549,9.91569" stroke-width="2" stroke="white" fill="none" stroke-linecap="round" stroke-linejoin="round" transform="translate(0,-10.667523669433592)" style="opacity: 1; stroke-dasharray: 37.6718px, 39.6718px; stroke-dashoffset: 38.6718px;"></path></g></g></g><g transform="translate(0, 295.692)"><g transform="translate(121.052, 151.732)"><g transform="translate(24.136498402661513,0)  scale(3.44455643621814)"><path d="m 0,0 c -4.646,-1.48274,-10.0236,8.49938,-4.5836,10.33665,3.3686,1.13772,5.7062,-9.96247,5.7062,-9.96247,-0.6831,3.30523,-0.9457,6.61046,-0.6549,9.91569" stroke-width="2" stroke="white" fill="none" stroke-linecap="round" stroke-linejoin="round" transform="translate(0,-10.667523669433592)" style="opacity: 1; stroke-dasharray: 37.6718px, 39.6718px; stroke-dashoffset: 38.6718px;"></path></g><g transform="translate(32.42096865671789,0)  scale(3.44455643621814)"><path d="m 0,0 c -0.7275,3.66382,-1.11,7.32764,-0.8419,10.99146,0,0,3.1281,-11.01538,6.5013,-10.52374,2.0763,0.30261,-0.4186,10.73879,0.1872,10.57051" stroke-width="2" stroke="white" fill="none" stroke-linecap="round" stroke-linejoin="round" transform="translate(0,-11.462653669433593)" style="opacity: 1; stroke-dasharray: 34.9957px, 36.9957px; stroke-dashoffset: 35.9957px;"></path></g><g transform="translate(78.53067258892746,0)  scale(3.44455643621814)"><path d="m 0,0 c -4.9667,-0.45622,-9.1645,7.21767,-4.9111,10.19632,4.6123,3.23,13.3715,-22.05535,9.3544,-22.35709,-6.6991,-0.5032,-3.6612,22.86941,-2.3386,22.59096" stroke-width="2" stroke="white" fill="none" stroke-linecap="round" stroke-linejoin="round" transform="translate(0,-10.854603669433587)" style="opacity: 1; stroke-dasharray: 66.3321px, 68.3321px; stroke-dashoffset: 67.3321px;"></path></g><g transform="translate(97.37054941077139,0)  scale(3.44455643621814)"><path d="M0,0 l12.533575179729056 0" stroke-width="2" stroke="transparent" fill="none" stroke-linecap="round" stroke-linejoin="round" transform="translate(0,0)" style="opacity: 1; stroke-dasharray: 12.5336px, 14.5336px; stroke-dashoffset: 13.5336px;"></path></g><g transform="translate(151.3657116050477,0)  scale(3.44455643621814)"><path d="m 0,0 c 3.7693,-0.16435,7.38481,-0.17491,10.98021,-0.16536" stroke-width="2" stroke="white" fill="none" stroke-linecap="round" stroke-linejoin="round" transform="translate(0,-19.612243669433596)" style="opacity: 1; stroke-dasharray: 10.9825px, 12.9825px; stroke-dashoffset: 11.9825px;"></path><path d="m 0,0 c 3.78134,0.0759,7.56268,0.0233,11.34401,-0.16536" stroke-width="2" stroke="white" fill="none" stroke-linecap="round" stroke-linejoin="round" transform="translate(-3.141930000000002,-0.9260436694335965)" style="opacity: 1; stroke-dasharray: 11.3475px, 13.3475px; stroke-dashoffset: 12.3475px;"></path><path d="m 0,0 c -1.00721,6.32093,-1.95816,12.5856,-2.87734,18.81849" stroke-width="2" stroke="white" fill="none" stroke-linecap="round" stroke-linejoin="round" transform="translate(5.2585900000000265,-19.744533669433594)" style="opacity: 1; stroke-dasharray: 19.0373px, 21.0373px; stroke-dashoffset: 20.0373px;"></path></g><g transform="translate(192.71299077267395,0)  scale(3.44455643621814)"><path d="m 0,0 c 0.874227,-2.48524,2.617772,-7.18154,1.543483,-7.24968,-1.123,-0.0712,-1.042912,4.3654,-1.543483,7.24968 z" stroke-width="2" stroke="white" fill="none" stroke-linecap="round" stroke-linejoin="round" transform="translate(0,-13.824193669433598)" style="opacity: 1; stroke-dasharray: 15.335px, 17.335px; stroke-dashoffset: 16.335px;"></path></g><g transform="translate(205.53847776934953,0)  scale(3.44455643621814)"><path d="m 0,0 c -1.2058,3.63903,-0.8329,7.14944,-0.421,10.66404,0,0,4.0146,-12.33194,6.7352,-10.80436,1.5337,0.86113,-1.2967,11.0151,-0.6075,10.85114,0,0,2.3347,-10.67544,6.7352,-10.43019,2.443,0.13615,-0.3535,10.57051,0.1403,10.57051" stroke-width="2" stroke="white" fill="none" stroke-linecap="round" stroke-linejoin="round" transform="translate(0,-11.088463669433594)" style="opacity: 1; stroke-dasharray: 59.614px, 61.614px; stroke-dashoffset: 60.614px;"></path></g><g transform="translate(251.89363680105643,0)  scale(3.44455643621814)"><path d="M0,0 l12.533575179729056 0" stroke-width="2" stroke="transparent" fill="none" stroke-linecap="round" stroke-linejoin="round" transform="translate(0,0)" style="opacity: 1; stroke-dasharray: 12.5336px, 14.5336px; stroke-dashoffset: 13.5336px;"></path></g><g transform="translate(319.2027418385178,0)  scale(3.44455643621814)"><path d="m 0,0 c -4.646,-1.48274,-10.0236,8.49938,-4.5836,10.33665,3.3686,1.13772,5.7062,-9.96247,5.7062,-9.96247,-0.6831,3.30523,-0.9457,6.61046,-0.6549,9.91569" stroke-width="2" stroke="white" fill="none" stroke-linecap="round" stroke-linejoin="round" transform="translate(0,-10.667523669433592)" style="opacity: 1; stroke-dasharray: 37.6718px, 39.6718px; stroke-dashoffset: 38.6718px;"></path></g><g transform="translate(323.5396238428743,0)  scale(3.44455643621814)"><path d="M0,0 l12.533575179729056 0" stroke-width="2" stroke="transparent" fill="none" stroke-linecap="round" stroke-linejoin="round" transform="translate(0,0)" style="opacity: 1; stroke-dasharray: 12.5336px, 14.5336px; stroke-dashoffset: 13.5336px;"></path></g><g transform="translate(389.6760019196793,0)  scale(3.44455643621814)"><path d="m 0,0 c -4.9667,-0.45622,-9.1645,7.21767,-4.9111,10.19632,4.6123,3.23,13.3715,-22.05535,9.3544,-22.35709,-6.6991,-0.5032,-3.6612,22.86941,-2.3386,22.59096" stroke-width="2" stroke="white" fill="none" stroke-linecap="round" stroke-linejoin="round" transform="translate(0,-10.854603669433587)" style="opacity: 1; stroke-dasharray: 66.3321px, 68.3321px; stroke-dashoffset: 67.3321px;"></path></g><g transform="translate(413.47337655203637,0)  scale(3.44455643621814)"><path d="m 0,0 c 2.465,0.66896,9.7292,-4.0435,4.9578,-6.40779,-5.4217,-2.6865,-9.9191,10.86369,-2.3854,10.47696,3.4053,-0.1748,4.7708,-3.36759,4.7708,-3.36759" stroke-width="2" stroke="white" fill="none" stroke-linecap="round" stroke-linejoin="round" transform="translate(0,-4.493593669433594)" style="opacity: 1; stroke-dasharray: 34.5357px, 36.5357px; stroke-dashoffset: 35.5357px;"></path></g><g transform="translate(439.51047585328433,0)  scale(3.44455643621814)"><path d="m 0,0 c 0.396,3.58586,0.5274,7.17173,1.4967,10.75759,2.5895,-3.6007,4.3478,-6.72839,6.1271,-10.71082" stroke-width="2" stroke="white" fill="none" stroke-linecap="round" stroke-linejoin="round" transform="translate(0,-11.415873669433594)" style="opacity: 1; stroke-dasharray: 23.2381px, 25.2381px; stroke-dashoffset: 24.2381px;"></path></g><g transform="translate(471.3833510152629,0)  scale(3.44455643621814)"><path d="m 0,0 c 2.465,0.66896,9.7292,-4.0435,4.9578,-6.40779,-5.4217,-2.6865,-9.9191,10.86369,-2.3854,10.47696,3.4053,-0.1748,4.7708,-3.36759,4.7708,-3.36759" stroke-width="2" stroke="white" fill="none" stroke-linecap="round" stroke-linejoin="round" transform="translate(0,-4.493593669433594)" style="opacity: 1; stroke-dasharray: 34.5357px, 36.5357px; stroke-dashoffset: 35.5357px;"></path></g><g transform="translate(499.3042660783235,0)  scale(3.44455643621814)"><path d="m 0,0 c 0,0,11.9119,-18.94195,5.5658,-19.08304,-4.8719,-0.10832,-9.4931,20.75883,-2.8998,22.17001,1.8527,0.39653,3.7418,-1.82412,3.7418,-1.82412" stroke-width="2" stroke="white" fill="none" stroke-linecap="round" stroke-linejoin="round" transform="translate(0,-3.6984736694335965)" style="opacity: 1; stroke-dasharray: 51.8247px, 53.8247px; stroke-dashoffset: 52.8247px;"></path></g><g transform="translate(543.162812614639,0)  scale(3.44455643621814)"><path d="m 0,0 c 5.0049,0.45252,4.5634,9.80789,-1.2628,9.96247,-5.4841,0.1455,-5.179,-10.54493,1.2628,-9.96247 z" stroke-width="2" stroke="white" fill="none" stroke-linecap="round" stroke-linejoin="round" transform="translate(0,-10.667523669433592)" style="opacity: 1; stroke-dasharray: 29.4971px, 31.4971px; stroke-dashoffset: 30.4971px;"></path></g><g transform="translate(575.2557610048729,0)  scale(3.44455643621814)"><path d="m 0,0 c -0.018,1.8385,1.2171,20.66525,-3.0402,21.65551,-7.7447,1.80145,2.5858,-23.46241,8.6061,-21.42165,5.6739,1.92332,-2.1583,11.26669,-5.3788,10.05602" stroke-width="2" stroke="white" fill="none" stroke-linecap="round" stroke-linejoin="round" transform="translate(0,-10.948153669433594)" style="opacity: 1; stroke-dasharray: 65.6755px, 67.6755px; stroke-dashoffset: 66.6755px;"></path></g><g transform="translate(606.2963304733455,0)  scale(3.44455643621814)"><path d="m 0,0 c 2.465,0.66896,9.7292,-4.0435,4.9578,-6.40779,-5.4217,-2.6865,-9.9191,10.86369,-2.3854,10.47696,3.4053,-0.1748,4.7708,-3.36759,4.7708,-3.36759" stroke-width="2" stroke="white" fill="none" stroke-linecap="round" stroke-linejoin="round" transform="translate(0,-4.493593669433594)" style="opacity: 1; stroke-dasharray: 34.5357px, 36.5357px; stroke-dashoffset: 35.5357px;"></path></g><g transform="translate(634.8564748435736,0)  scale(3.44455643621814)"><path d="m 0,0 c -0.6404,3.64447,-1.1518,7.28452,-0.7951,10.80436,0,0,3.0898,-11.27648,7.0626,-10.19632,1.8219,0.49536,-1.4947,4.20307,0.1871,4.91107,0.7215,0.30373,1.4967,-1.44994,1.4967,-1.44994" stroke-width="2" stroke="white" fill="none" stroke-linecap="round" stroke-linejoin="round" transform="translate(0,-11.415873669433594)" style="opacity: 1; stroke-dasharray: 31.8887px, 33.8887px; stroke-dashoffset: 32.8887px;"></path></g><g transform="translate(671.3834290702692,0)  scale(3.44455643621814)"><path d="m 0,0 c -2.57825,-0.0354,-2.3201,3.43658,-0.27479,3.52545,2.96663,0.1289,2.32471,-3.40196,0.27479,-3.52545,-1.25506,-0.0756,-2.97856,3.31192,-0.0877,3.25651,2.03967,-0.0391,2.31043,-2.73788,0.0585,-2.79464,-0.48846,-0.0123,-1.03484,0.51449,-1.03484,0.51449" stroke-width="2" stroke="white" fill="none" stroke-linecap="round" stroke-linejoin="round" transform="translate(0,-3.9381736694335956)" style="opacity: 1; stroke-dasharray: 22.3962px, 24.3962px; stroke-dashoffset: 23.3962px;"></path></g></g></g></svg>